<svg xmlns="http://www.w3.org/2000/svg" viewBox="0 0 256 256" role="img" aria-labelledby="title desc">
  <title id="title">DeepSeek V4 Benchmark logo mark</title>
  <desc id="desc">Rounded benchmark grid with an ascending blue line and green terminal point.</desc>
  <rect x="8" y="8" width="240" height="240" rx="42" fill="#ffffff" stroke="rgba(32,61,112,0.18)" stroke-width="3"/>
  <g stroke="rgba(32,61,112,0.18)" stroke-width="1">
    <path d="M48 48V208"/>
    <path d="M82 48V208"/>
    <path d="M116 48V208"/>
    <path d="M150 48V208"/>
    <path d="M184 48V208"/>
    <path d="M208 48V208"/>
    <path d="M48 48H208"/>
    <path d="M48 82H208"/>
    <path d="M48 116H208"/>
    <path d="M48 150H208"/>
    <path d="M48 184H208"/>
    <path d="M48 208H208"/>
  </g>
  <g stroke="#0353d8" stroke-width="10" fill="none" stroke-linecap="round" stroke-linejoin="round">
    <polyline points="56,176 100,142 138,156 182,96 214,58"/>
  </g>
  <g fill="#ffffff" stroke="#0353d8" stroke-width="4">
    <circle cx="56" cy="176" r="7"/>
    <circle cx="100" cy="142" r="7"/>
    <circle cx="138" cy="156" r="7"/>
    <circle cx="182" cy="96" r="7"/>
  </g>
  <circle cx="214" cy="58" r="10" fill="#14b86b" stroke="#0353d8" stroke-width="4"/>
  <g fill="rgba(18,115,255,0.12)" stroke="rgba(18,115,255,0.3)" stroke-width="2">
    <rect x="56" y="140" width="18" height="52" rx="5"/>
    <rect x="88" y="126" width="18" height="66" rx="5"/>
    <rect x="120" y="112" width="18" height="80" rx="5"/>
  </g>
</svg>
