<svg xmlns="http://www.w3.org/2000/svg" viewBox="0 0 960 320" role="img" aria-labelledby="title desc">
  <title id="title">DeepSeek V4 Benchmark wordmark</title>
  <desc id="desc">Technical wordmark with a benchmark grid mark and stacked title.</desc>
  <defs>
    <linearGradient id="line" x1="0%" y1="0%" x2="100%" y2="100%">
      <stop offset="0%" stop-color="#1273ff"/>
      <stop offset="100%" stop-color="#0353d8"/>
    </linearGradient>
  </defs>
  <rect width="960" height="320" rx="36" fill="rgba(255,255,255,0.84)"/>
  <g transform="translate(24 32) scale(1)">
    <rect x="8" y="8" width="240" height="240" rx="42" fill="#ffffff" stroke="rgba(32,61,112,0.18)" stroke-width="3"/>
    <g stroke="rgba(32,61,112,0.18)" stroke-width="1">
      <path d="M48 48V208"/>
      <path d="M82 48V208"/>
      <path d="M116 48V208"/>
      <path d="M150 48V208"/>
      <path d="M184 48V208"/>
      <path d="M208 48V208"/>
      <path d="M48 48H208"/>
      <path d="M48 82H208"/>
      <path d="M48 116H208"/>
      <path d="M48 150H208"/>
      <path d="M48 184H208"/>
      <path d="M48 208H208"/>
    </g>
    <polyline points="56,176 100,142 138,156 182,96 214,58" fill="none" stroke="url(#line)" stroke-width="10" stroke-linecap="round" stroke-linejoin="round"/>
    <g fill="#ffffff" stroke="#0353d8" stroke-width="4">
      <circle cx="56" cy="176" r="7"/>
      <circle cx="100" cy="142" r="7"/>
      <circle cx="138" cy="156" r="7"/>
      <circle cx="182" cy="96" r="7"/>
    </g>
    <circle cx="214" cy="58" r="10" fill="#14b86b" stroke="#0353d8" stroke-width="4"/>
  </g>
  <text x="308" y="128" fill="#0f1728" font-size="76" font-weight="700" letter-spacing="-2" font-family="'Avenir Next Condensed','Avenir Next','Segoe UI Variable',sans-serif">DEEPSEEK V4</text>
  <text x="308" y="200" fill="#0353d8" font-size="76" font-weight="700" letter-spacing="-2" font-family="'Avenir Next Condensed','Avenir Next','Segoe UI Variable',sans-serif">BENCHMARK</text>
  <text x="312" y="244" fill="#4e5c74" font-size="24" font-weight="600" letter-spacing="8" font-family="'IBM Plex Mono','SFMono-Regular',monospace">PUBLIC MODEL SNAPSHOT</text>
  <path d="M312 228H802" stroke="rgba(32,61,112,0.18)" stroke-width="3"/>
</svg>
